
<svg width="40px" height="40px" fill="#ebfbeb" stroke="#cad9cb" stroke-width=240 viewBox="0 0 4000 4000">

    <path d="M1918 130c-14,2 -46,4 -73,6 -300,22 -577,111 -795,258 -195,131 -347,313 -439,525 -31,71 -42,120 -51,224 -8,78 -7,101 5,223 14,147 51,323 92,436 7,20 9,23 29,39 39,32 72,78 98,137 7,15 24,57 37,93l25 66 0 43c0,64 -7,92 -56,244 -48,145 -51,159 -46,226 6,85 21,132 51,155 22,18 37,21 96,23 76,2 114,-5 135,-26 16,-16 25,-20 64,-24 60,-6 148,3 208,23 72,24 113,61 122,112 3,16 3,18 -6,38 -23,52 -18,87 16,102 12,6 20,7 32,7 15,-1 16,-2 21,-12 2,-5 7,-24 10,-41 10,-70 18,-88 41,-99 13,-5 14,-5 25,0 15,8 19,23 19,80l1 44 -11 24c-10,19 -12,28 -12,42 0,22 4,26 38,35 20,6 34,13 56,27 37,23 49,28 69,28 25,1 25,0 30,-77 3,-52 8,-71 21,-82 12,-10 29,-10 38,-1 11,13 13,22 11,66l-2 42 10 16c22,36 60,45 103,24 36,-18 37,-23 47,-130 7,-67 9,-79 17,-77 8,1 15,15 24,47 4,15 9,29 10,29 9,3 30,66 36,102 4,29 9,36 28,40 39,10 94,-4 115,-30 11,-13 13,-29 6,-49 -2,-8 -4,-16 -3,-18 3,-5 16,-4 26,2 5,3 13,5 18,4 6,0 8,2 13,13 14,30 40,53 72,62 22,7 33,6 45,-2 18,-12 21,-26 22,-104 1,-59 2,-71 7,-88 10,-33 32,-57 53,-57 8,0 12,2 20,11 13,15 19,38 22,89 4,49 9,69 25,84 11,11 18,14 32,17 35,6 91,-29 109,-68 11,-24 11,-37 -1,-79 -13,-46 -14,-58 -1,-83 13,-26 54,-67 88,-87 61,-36 162,-65 205,-58 20,3 33,8 87,32 53,24 68,28 92,28 19,0 25,-2 59,-17 47,-20 73,-34 89,-49 13,-12 23,-29 23,-43 0,-4 -8,-32 -18,-62 -80,-240 -92,-358 -52,-500 6,-20 14,-42 17,-47 10,-18 26,-59 43,-110 9,-27 21,-59 27,-70 14,-30 39,-56 75,-80 40,-27 68,-53 92,-90 43,-65 70,-152 81,-264 3,-25 6,-61 8,-79 9,-83 -13,-308 -40,-424 -22,-91 -103,-225 -200,-328 -263,-282 -716,-473 -1194,-507 -26,-1 -64,-4 -84,-6 -42,-3 -115,-3 -152,0l0 0zm961 1483c30,4 68,16 91,30 9,6 30,23 45,38 23,23 31,34 43,56 26,51 37,96 37,153 0,128 -66,237 -174,283 -72,32 -210,50 -300,39 -128,-14 -235,-66 -318,-154 -67,-70 -97,-128 -89,-173 10,-56 67,-113 182,-184 89,-55 159,-78 259,-88 60,-5 176,-5 224,0l0 0zm-1459 0c102,10 176,33 253,79 154,92 211,159 196,230 -8,38 -37,84 -87,137 -100,105 -228,156 -386,156 -71,0 -125,-8 -192,-27 -88,-25 -152,-81 -188,-164 -18,-40 -23,-68 -25,-118 -2,-49 1,-76 13,-113 32,-101 104,-166 201,-180 26,-3 179,-3 215,0zm686 502c5,3 12,7 14,10 7,7 96,161 140,241 36,64 50,97 50,119 0,49 -55,67 -114,39 -21,-10 -24,-14 -46,-54 -23,-43 -39,-55 -77,-58 -28,-3 -51,4 -65,19 -6,6 -18,23 -26,38 -7,15 -18,32 -23,38 -18,22 -67,37 -99,31 -36,-6 -50,-34 -39,-77 6,-22 24,-56 85,-163 95,-167 103,-179 128,-186 15,-5 61,-3 72,3l0 0z"/>
    <path  d="M1206 2861c-15,16 -21,62 -17,130 4,64 12,110 30,174 17,61 17,66 20,201 3,158 9,203 30,243 24,45 61,64 141,72l38 4 113 43c62,24 128,47 147,53 66,18 100,34 176,83 53,33 80,45 127,53 38,7 66,8 98,3 78,-11 90,-15 135,-41 35,-20 60,-29 91,-33 81,-9 138,-42 178,-102 18,-28 87,-109 111,-131 27,-24 69,-42 124,-52 16,-3 27,-8 55,-24 57,-35 71,-51 75,-84 1,-13 -1,-25 -6,-47 -17,-61 -17,-73 -20,-269 -1,-122 -3,-186 -5,-195 -13,-48 -40,-60 -67,-30 -22,25 -27,38 -54,168 -12,58 -24,110 -27,115 -8,16 -25,34 -37,40 -21,11 -44,7 -74,-12 -17,-11 -63,-26 -84,-28 -49,-5 -72,22 -80,90 -1,16 -4,31 -6,31 -5,2 -62,-6 -69,-9 -4,-2 -11,-10 -17,-18 -16,-21 -22,-27 -43,-32 -37,-9 -56,1 -67,35 -3,9 -6,17 -9,19 -3,4 -66,8 -72,5 -1,-1 -5,-10 -7,-19 -8,-28 -12,-34 -23,-33 -6,0 -16,2 -23,4 -12,3 -13,4 -17,19 -5,18 -9,19 -38,19 -14,0 -15,0 -37,-23 -52,-53 -100,-55 -134,-6 -14,20 -15,21 -49,25l-19 2 -6 -10c-19,-37 -55,-53 -80,-38 -10,6 -23,29 -26,47 -3,18 -5,19 -35,17 -15,-1 -30,-3 -33,-3 -9,-2 -13,-14 -16,-47 -2,-16 -4,-32 -6,-35 -7,-12 -32,-20 -70,-24 -20,-1 -38,-3 -42,-4 -6,-2 -9,0 -16,8 -13,16 -23,19 -37,12 -14,-6 -85,-86 -93,-103 -7,-17 -14,-46 -22,-101 -9,-56 -14,-73 -27,-99 -27,-53 -63,-82 -79,-63l0 0z"/>

</svg>
